<svg aria-hidden="true" style="position: absolute; width: 0; height: 0; overflow: hidden;" version="1.1" xmlns="http://www.w3.org/2000/svg" xmlns:xlink="http://www.w3.org/1999/xlink">
<defs>
<symbol id="icon-circular-graph" viewBox="0 0 20 20">
<path d="M17.584 9.372h2c-0.065-1.049-0.293-2.053-0.668-2.984l-1.756 1.014c0.224 0.623 0.371 1.283 0.424 1.97zM14.101 1.295c-0.955-0.451-1.99-0.757-3.086-0.87v2.021c0.733 0.097 1.433 0.295 2.084 0.585l1.002-1.736zM16.242 5.622l1.741-1.005c-0.591-0.878-1.33-1.645-2.172-2.285l-1.006 1.742c0.549 0.446 1.031 0.968 1.437 1.548zM10.014 17.571c-4.197 0-7.6-3.402-7.6-7.6 0-3.858 2.877-7.036 6.601-7.526v-2.021c-4.833 0.5-8.601 4.583-8.601 9.547 0 5.303 4.298 9.601 9.601 9.601 4.824 0 8.807-3.563 9.486-8.2h-2.021c-0.658 3.527-3.748 6.199-7.466 6.199z"></path>
</symbol>
<symbol id="icon-heart-outlined" viewBox="0 0 20 20">
<path d="M17.19 4.156c-1.672-1.535-4.383-1.535-6.055 0l-1.135 1.041-1.136-1.041c-1.672-1.535-4.382-1.535-6.054 0-1.881 1.726-1.881 4.519 0 6.245l7.19 6.599 7.19-6.599c1.88-1.726 1.88-4.52 0-6.245zM16.124 9.375l-6.124 5.715-6.125-5.715c-0.617-0.567-0.856-1.307-0.856-2.094s0.138-1.433 0.756-1.999c0.545-0.501 1.278-0.777 2.063-0.777s1.517 0.476 2.062 0.978l2.1 1.825 2.099-1.826c0.546-0.502 1.278-0.978 2.063-0.978s1.518 0.276 2.063 0.777c0.618 0.566 0.755 1.212 0.755 1.999s-0.238 1.528-0.856 2.095z"></path>
</symbol>
<symbol id="icon-heart" viewBox="0 0 20 20">
<path d="M17.19 4.155c-1.672-1.534-4.383-1.534-6.055 0l-1.135 1.042-1.136-1.042c-1.672-1.534-4.382-1.534-6.054 0-1.881 1.727-1.881 4.52 0 6.246l7.19 6.599 7.19-6.599c1.88-1.726 1.88-4.52 0-6.246z"></path>
</symbol>
</defs>
</svg>
